PathFileType	4	(X/Y/Z)	SUBJ82_0_static_RCNL2025.trc
DataRate	CameraRate	NumFrames	NumMarkers	Units	OrigDataRate	OrigDataStartFrame	OrigNumFrames
100	100	10	25	mm	100	28	82
Frame#	Time	R_Shoulder			L_Shoulder			C7			J_Notch			R_Elbow			L_Elbow			R_Wrist			L_Wrist			R_Asis			L_Asis			Sacral			Thoracic			Sternum			R_Thigh_Lateral			R_Knee_Lateral			R_Shank_Lateral			R_Ankle_Lateral			R_Heel			R_Toe			L_Thigh_Lateral			L_Knee_Lateral			L_Shank_Lateral			L_Ankle_Lateral			L_Heel			L_Toe		
		X1	Y1	Z1	X2	Y2	Z2	X3	Y3	Z3	X4	Y4	Z4	X5	Y5	Z5	X6	Y6	Z6	X7	Y7	Z7	X8	Y8	Z8	X9	Y9	Z9	X10	Y10	Z10	X11	Y11	Z11	X12	Y12	Z12	X13	Y13	Z13	X14	Y14	Z14	X15	Y15	Z15	X16	Y16	Z16	X17	Y17	Z17	X18	Y18	Z18	X19	Y19	Z19	X20	Y20	Z20	X21	Y21	Z21	X22	Y22	Z22	X23	Y23	Z23	X24	Y24	Z24	X25	Y25	Z25
28	0.27000000	-279.463318	1454.684692	-2.786581	-254.419220	1472.082397	-392.632568	-321.507416	1526.807861	-194.896317	-188.917725	1422.274536	-194.189911	-307.583374	1186.747925	188.741211	-272.055542	1202.504517	-595.731628	-232.560326	970.578857	314.278488	-207.491753	981.809937	-712.467285	-187.232544	1000.002991	-56.741730	-177.386642	1006.697266	-326.994446	-362.751984	1029.453369	-208.085526	-393.309509	1290.510864	-212.554245	-157.197281	1242.320679	-197.158020	-287.776459	574.716736	-21.286434	-300.081268	488.891205	-71.355095	-337.288422	265.596161	-11.108926	-340.843536	79.666298	-105.524147	-383.110474	46.487743	-148.230499	-204.105301	51.316818	-124.723846	-311.819366	573.029602	-372.601868	-318.605621	496.988770	-328.540558	-329.723114	265.603638	-365.826569	-335.034332	74.198479	-298.546539	-374.669769	52.326981	-246.352173	-191.975296	46.083164	-269.063599
29	0.28000000	-279.278442	1454.650757	-2.794618	-254.215424	1472.076294	-392.575897	-321.093994	1526.633911	-194.854477	-188.854736	1422.272461	-194.259171	-307.560181	1186.776733	188.730225	-271.987793	1202.490479	-595.520996	-232.419548	970.581390	314.350189	-207.311478	981.789154	-712.398712	-187.109604	999.966187	-56.787876	-177.279495	1006.706909	-327.059204	-362.602417	1029.429688	-208.062469	-393.117798	1290.468750	-212.542084	-157.047897	1242.313354	-197.152008	-287.595520	574.697144	-21.284031	-300.112976	488.828430	-71.337280	-337.254913	265.562744	-11.119729	-340.787567	79.633293	-105.569016	-383.113434	46.495907	-148.221786	-204.061646	51.322315	-124.793533	-311.780853	572.973816	-372.546783	-318.520111	496.956299	-328.500458	-329.769714	265.606171	-365.808105	-335.066925	74.155609	-298.467377	-374.665375	52.337051	-246.357147	-191.976456	46.085705	-269.093536
30	0.29000000	-279.142395	1454.660278	-2.790999	-254.050812	1472.082642	-392.567902	-320.838959	1526.674805	-194.900406	-188.709183	1422.205566	-194.218735	-307.454987	1186.742065	188.760284	-271.917999	1202.526489	-595.487061	-232.295876	970.575104	314.278900	-207.216621	981.676178	-712.335266	-186.976776	999.939819	-56.818821	-177.122070	1006.683716	-327.126862	-362.459656	1029.427246	-208.030258	-392.972443	1290.457764	-212.517105	-156.883881	1242.259766	-197.182175	-287.499237	574.632385	-21.356899	-300.023407	488.875580	-71.386131	-337.222992	265.622559	-11.143147	-340.852783	79.687027	-105.511703	-383.134338	46.534042	-148.192886	-204.072449	51.320538	-124.766518	-311.753418	572.988281	-372.553741	-318.521942	496.965698	-328.471344	-329.670532	265.598083	-365.844879	-335.117798	74.150101	-298.415131	-374.650208	52.368168	-246.364212	-191.976868	46.124374	-269.097778
31	0.30000000	-279.003357	1454.742310	-2.753160	-253.896011	1472.077026	-392.546448	-320.724487	1526.661499	-194.854431	-188.591675	1422.169434	-194.142838	-307.346466	1186.836914	188.808548	-271.726349	1202.502319	-595.413574	-232.139091	970.625793	314.281189	-207.065956	981.693604	-712.310883	-186.802811	999.962280	-56.909077	-176.966187	1006.670227	-327.103180	-362.302246	1029.481567	-208.025650	-392.883636	1290.532349	-212.582886	-156.748001	1242.263916	-197.118607	-287.383118	574.631104	-21.298502	-299.916718	488.850128	-71.355881	-337.225983	265.624146	-11.120485	-340.814514	79.688278	-105.529709	-383.118500	46.625000	-148.218414	-204.021851	51.308460	-124.760033	-311.662445	573.034912	-372.571716	-318.517822	496.992035	-328.462341	-329.645691	265.598175	-365.853943	-335.094666	74.194023	-298.513275	-374.657654	52.382210	-246.330688	-192.018906	46.087543	-269.046021
32	0.31000000	-278.770966	1454.769409	-2.794411	-253.718430	1472.057251	-392.559509	-320.434723	1526.699585	-194.844940	-188.404709	1422.158936	-194.188278	-306.972961	1186.805908	188.646667	-271.555115	1202.530151	-595.428223	-231.948204	970.662933	314.295380	-206.913910	981.698669	-712.294739	-186.590790	999.905151	-56.937969	-176.942047	1006.622864	-327.158112	-362.221649	1029.482788	-208.070023	-392.671631	1290.520508	-212.607178	-156.675369	1242.245972	-197.211670	-287.328766	574.668518	-21.326130	-299.893585	488.829773	-71.361031	-337.066040	265.633667	-11.099652	-340.827271	79.661575	-105.530373	-383.196564	46.708714	-148.165573	-204.008331	51.293278	-124.764549	-311.660095	573.051514	-372.552155	-318.393372	497.013123	-328.488770	-329.599335	265.642944	-365.812195	-335.040131	74.229301	-298.461853	-374.640625	52.417839	-246.358032	-191.978821	46.126217	-269.056061
33	0.32000000	-278.605103	1454.754883	-2.804187	-253.527390	1472.050415	-392.549011	-320.212524	1526.676880	-194.890579	-188.227814	1422.188354	-194.228943	-306.744720	1186.834473	188.613342	-271.352173	1202.537231	-595.443237	-231.793907	970.619263	314.239365	-206.822594	981.638794	-712.396301	-186.434616	999.942871	-56.907970	-176.794342	1006.596252	-327.242126	-362.035217	1029.474609	-208.104965	-392.472687	1290.444214	-212.642868	-156.578308	1242.176025	-197.159027	-286.984070	574.565613	-21.540394	-299.685425	488.861877	-71.394905	-337.002899	265.633484	-11.183692	-340.798096	79.689369	-105.546066	-383.212799	46.719353	-148.155869	-204.017899	51.303284	-124.760422	-311.557648	573.030029	-372.542969	-318.356018	497.012054	-328.450104	-329.595795	265.602478	-365.797028	-335.040375	74.253990	-298.490692	-374.614960	52.407623	-246.380951	-191.991501	46.069489	-269.005524
34	0.33000000	-278.494354	1454.765625	-2.794440	-253.356903	1472.052856	-392.576965	-320.135223	1526.641479	-194.935760	-188.046234	1422.178833	-194.234802	-307.081238	1186.836914	188.734116	-271.323029	1202.527954	-595.477051	-231.686577	970.584412	314.202896	-206.698639	981.641022	-712.421692	-186.346634	999.921509	-56.989002	-176.635132	1006.564575	-327.175079	-361.865234	1029.438843	-208.105865	-392.316223	1290.487549	-212.644424	-156.457825	1242.156982	-197.087952	-287.086945	574.593079	-21.359282	-299.644775	488.860016	-71.408630	-336.991119	265.609009	-11.178232	-340.788452	79.667427	-105.542137	-383.207245	46.714062	-148.158691	-204.057373	51.322437	-124.736221	-311.468597	573.024170	-372.560181	-318.298492	497.002197	-328.478302	-329.602661	265.581696	-365.804443	-335.112183	74.219307	-298.452301	-374.674072	52.446621	-246.316635	-191.945480	46.151497	-269.063568
35	0.34000000	-278.348145	1454.792114	-2.792305	-253.233368	1472.037964	-392.585022	-319.908600	1526.615967	-194.990952	-187.972717	1422.159790	-194.277725	-306.519531	1186.855591	188.559753	-271.087372	1202.453979	-595.577576	-231.582573	970.641174	314.206375	-206.634827	981.684692	-712.506989	-186.199966	999.886414	-57.062790	-176.404877	1006.580566	-327.266602	-361.718933	1029.413940	-208.078522	-392.176941	1290.474487	-212.618530	-156.388855	1242.117554	-197.224487	-287.062469	574.622375	-21.262716	-299.636871	488.851624	-71.422989	-337.007782	265.598694	-11.153523	-340.719635	79.677750	-105.478455	-383.055908	46.615578	-148.251465	-204.025818	51.306755	-124.755791	-311.407135	572.962646	-372.645416	-318.263916	496.961487	-328.560211	-329.544678	265.596252	-365.869049	-335.101379	74.193161	-298.512207	-374.724152	52.446495	-246.264221	-191.969116	46.135937	-269.064148
36	0.35000000	-278.184113	1454.750977	-2.781592	-253.020966	1472.039673	-392.647522	-319.727539	1526.659302	-195.017105	-187.881607	1422.132202	-194.231186	-306.319824	1186.809204	188.556686	-271.071533	1202.443970	-595.582275	-231.439255	970.606171	314.200500	-206.498260	981.623322	-712.584106	-186.083084	999.879150	-57.022827	-176.321365	1006.523865	-327.305573	-361.640625	1029.431641	-208.130020	-392.096619	1290.447998	-212.579605	-156.268738	1242.103027	-197.189697	-286.976593	574.550232	-21.332294	-299.572266	488.817200	-71.474579	-336.919586	265.606659	-11.181482	-340.823730	79.705559	-105.540955	-383.025635	46.576859	-148.269836	-204.017868	51.303669	-124.760597	-311.311005	573.011475	-372.642456	-318.167877	496.964478	-328.582855	-329.483643	265.514587	-365.859100	-335.108246	74.195488	-298.449615	-374.626495	52.436172	-246.353745	-191.899887	46.119465	-269.085876
37	0.36000000	-277.938293	1454.785645	-2.843143	-252.882401	1472.017212	-392.637848	-320.082642	1526.980591	-194.993652	-187.672546	1422.151245	-194.279877	-306.193146	1186.857544	188.586029	-270.945831	1202.475952	-595.660278	-231.380875	970.589844	314.176270	-206.381401	981.625000	-712.581787	-185.913406	999.902588	-57.061390	-176.164017	1006.506226	-327.338287	-361.542847	1029.435791	-208.105331	-391.990631	1290.476074	-212.520920	-156.076752	1242.108765	-197.229507	-286.835114	574.525879	-21.425117	-299.499237	488.740051	-71.431404	-336.857025	265.588745	-11.171131	-340.704620	79.762749	-105.524353	-383.033081	46.580971	-148.265793	-203.931580	51.269314	-124.744102	-311.200897	572.993469	-372.684723	-318.086578	496.974335	-328.611511	-329.362579	265.560364	-365.883606	-334.980743	74.172440	-298.546570	-374.547699	52.323219	-246.452942	-191.860489	46.126396	-269.158966
